<svg id="visual" viewBox="0 0 900 600" width="900" height="600" xmlns="http://www.w3.org/2000/svg" xmlns:xlink="http://www.w3.org/1999/xlink" version="1.1"><rect x="0" y="0" width="900" height="600" fill="#001220"></rect><path d="M0 200L21.5 200.5C43 201 86 202 128.8 200C171.7 198 214.3 193 257.2 198.7C300 204.3 343 220.7 385.8 218.3C428.7 216 471.3 195 514.2 183.3C557 171.7 600 169.3 642.8 182.5C685.7 195.7 728.3 224.3 771.2 231C814 237.7 857 222.3 878.5 214.7L900 207L900 0L878.5 0C857 0 814 0 771.2 0C728.3 0 685.7 0 642.8 0C600 0 557 0 514.2 0C471.3 0 428.7 0 385.8 0C343 0 300 0 257.2 0C214.3 0 171.7 0 128.8 0C86 0 43 0 21.5 0L0 0Z" fill="#3828a2"></path><path d="M0 164L21.5 168C43 172 86 180 128.8 180C171.7 180 214.3 172 257.2 165.5C300 159 343 154 385.8 153.5C428.7 153 471.3 157 514.2 159.7C557 162.3 600 163.7 642.8 162.7C685.7 161.7 728.3 158.3 771.2 154.5C814 150.7 857 146.3 878.5 144.2L900 142L900 0L878.5 0C857 0 814 0 771.2 0C728.3 0 685.7 0 642.8 0C600 0 557 0 514.2 0C471.3 0 428.7 0 385.8 0C343 0 300 0 257.2 0C214.3 0 171.7 0 128.8 0C86 0 43 0 21.5 0L0 0Z" fill="#4026ba"></path><path d="M0 104L21.5 110.2C43 116.3 86 128.7 128.8 135.5C171.7 142.3 214.3 143.7 257.2 145.8C300 148 343 151 385.8 142.8C428.7 134.7 471.3 115.3 514.2 106C557 96.7 600 97.3 642.8 101C685.7 104.7 728.3 111.3 771.2 116.5C814 121.7 857 125.3 878.5 127.2L900 129L900 0L878.5 0C857 0 814 0 771.2 0C728.3 0 685.7 0 642.8 0C600 0 557 0 514.2 0C471.3 0 428.7 0 385.8 0C343 0 300 0 257.2 0C214.3 0 171.7 0 128.8 0C86 0 43 0 21.5 0L0 0Z" fill="#4a22d1"></path><path d="M0 88L21.5 84.3C43 80.7 86 73.3 128.8 73.5C171.7 73.7 214.3 81.3 257.2 89.3C300 97.3 343 105.7 385.8 106.5C428.7 107.3 471.3 100.7 514.2 93C557 85.3 600 76.7 642.8 74.5C685.7 72.3 728.3 76.7 771.2 78.2C814 79.7 857 78.3 878.5 77.7L900 77L900 0L878.5 0C857 0 814 0 771.2 0C728.3 0 685.7 0 642.8 0C600 0 557 0 514.2 0C471.3 0 428.7 0 385.8 0C343 0 300 0 257.2 0C214.3 0 171.7 0 128.8 0C86 0 43 0 21.5 0L0 0Z" fill="#5719e8"></path><path d="M0 33L21.5 32.3C43 31.7 86 30.3 128.8 33.5C171.7 36.7 214.3 44.3 257.2 51.3C300 58.3 343 64.7 385.8 67.3C428.7 70 471.3 69 514.2 69.3C557 69.7 600 71.3 642.8 68.5C685.7 65.7 728.3 58.3 771.2 54.8C814 51.3 857 51.7 878.5 51.8L900 52L900 0L878.5 0C857 0 814 0 771.2 0C728.3 0 685.7 0 642.8 0C600 0 557 0 514.2 0C471.3 0 428.7 0 385.8 0C343 0 300 0 257.2 0C214.3 0 171.7 0 128.8 0C86 0 43 0 21.5 0L0 0Z" fill="#6600ff"></path></svg>