<svg id="visual" viewBox="0 0 900 600" width="900" height="600" xmlns="http://www.w3.org/2000/svg" xmlns:xlink="http://www.w3.org/1999/xlink" version="1.1"><rect x="0" y="0" width="900" height="600" fill="#001220"></rect><path d="M0 398L21.5 397.5C43 397 86 396 128.8 398C171.7 400 214.3 405 257.2 399.3C300 393.7 343 377.3 385.8 379.7C428.7 382 471.3 403 514.2 414.7C557 426.3 600 428.7 642.8 415.5C685.7 402.3 728.3 373.7 771.2 367C814 360.3 857 375.7 878.5 383.3L900 391L900 601L878.5 601C857 601 814 601 771.2 601C728.3 601 685.7 601 642.8 601C600 601 557 601 514.2 601C471.3 601 428.7 601 385.8 601C343 601 300 601 257.2 601C214.3 601 171.7 601 128.8 601C86 601 43 601 21.5 601L0 601Z" fill="#3828a2"></path><path d="M0 434L21.5 430C43 426 86 418 128.8 418C171.7 418 214.3 426 257.2 432.5C300 439 343 444 385.8 444.5C428.7 445 471.3 441 514.2 438.3C557 435.7 600 434.3 642.8 435.3C685.7 436.3 728.3 439.7 771.2 443.5C814 447.3 857 451.7 878.5 453.8L900 456L900 601L878.5 601C857 601 814 601 771.2 601C728.3 601 685.7 601 642.8 601C600 601 557 601 514.2 601C471.3 601 428.7 601 385.8 601C343 601 300 601 257.2 601C214.3 601 171.7 601 128.8 601C86 601 43 601 21.5 601L0 601Z" fill="#4026ba"></path><path d="M0 494L21.5 487.8C43 481.7 86 469.3 128.8 462.5C171.7 455.7 214.3 454.3 257.2 452.2C300 450 343 447 385.8 455.2C428.7 463.3 471.3 482.7 514.2 492C557 501.3 600 500.7 642.8 497C685.7 493.3 728.3 486.7 771.2 481.5C814 476.3 857 472.7 878.5 470.8L900 469L900 601L878.5 601C857 601 814 601 771.2 601C728.3 601 685.7 601 642.8 601C600 601 557 601 514.2 601C471.3 601 428.7 601 385.8 601C343 601 300 601 257.2 601C214.3 601 171.7 601 128.8 601C86 601 43 601 21.5 601L0 601Z" fill="#4a22d1"></path><path d="M0 510L21.5 513.7C43 517.3 86 524.7 128.8 524.5C171.7 524.3 214.3 516.7 257.2 508.7C300 500.7 343 492.3 385.8 491.5C428.7 490.7 471.3 497.3 514.2 505C557 512.7 600 521.3 642.8 523.5C685.7 525.7 728.3 521.3 771.2 519.8C814 518.3 857 519.7 878.5 520.3L900 521L900 601L878.5 601C857 601 814 601 771.2 601C728.3 601 685.7 601 642.8 601C600 601 557 601 514.2 601C471.3 601 428.7 601 385.8 601C343 601 300 601 257.2 601C214.3 601 171.7 601 128.8 601C86 601 43 601 21.5 601L0 601Z" fill="#5719e8"></path><path d="M0 565L21.5 565.7C43 566.3 86 567.7 128.8 564.5C171.7 561.3 214.3 553.7 257.2 546.7C300 539.7 343 533.3 385.8 530.7C428.7 528 471.3 529 514.2 528.7C557 528.3 600 526.7 642.8 529.5C685.7 532.3 728.3 539.7 771.2 543.2C814 546.7 857 546.3 878.5 546.2L900 546L900 601L878.5 601C857 601 814 601 771.2 601C728.3 601 685.7 601 642.8 601C600 601 557 601 514.2 601C471.3 601 428.7 601 385.8 601C343 601 300 601 257.2 601C214.3 601 171.7 601 128.8 601C86 601 43 601 21.5 601L0 601Z" fill="#6600ff"></path></svg>